<?xml version="1.0" standalone="no"?><!DOCTYPE svg PUBLIC "-//W3C//DTD SVG 1.1//EN" "http://www.w3.org/Graphics/SVG/1.1/DTD/svg11.dtd"><svg t="1715330889207" class="icon" viewBox="0 0 1024 1024" version="1.1" xmlns="http://www.w3.org/2000/svg" p-id="8261" width="32" height="32" xmlns:xlink="http://www.w3.org/1999/xlink"><path d="M780.4 360.2l121.1 102.1-121.1 102.1z" fill="#F4C33B" p-id="8262"></path><path d="M774.4 577.3v-230l136.5 115-136.5 115z m12-204.2v178.4l105.8-89.2-105.8-89.2z" fill="#232323" p-id="8263"></path><path d="M457.6 127.2c-11.6 0-23 0.6-34.3 1.7 21.7 32 34.3 70.6 34.3 112.1 0 110.6-89.7 200.3-200.3 200.3-48.7 0-93.3-17.4-128.1-46.3-4.4 21.7-6.8 44.2-6.8 67.3 0 185.1 150 335.1 335.1 335.1s335.1-150 335.1-335.1c0.2-185.1-149.9-335.1-335-335.1z" fill="#E83A3A" p-id="8264"></path><path d="M457.6 803.4c-91.1 0-176.8-35.5-241.2-99.9-64.4-64.4-99.9-150.1-99.9-241.2 0-23 2.3-46.1 6.9-68.5l2-9.8 7.7 6.4c34.8 29 78.9 44.9 124.2 44.9 107.1 0 194.3-87.2 194.3-194.3 0-39-11.5-76.6-33.3-108.8l-5.6-8.3 10-1c11.5-1.2 23.3-1.8 34.9-1.8 91.1 0 176.8 35.5 241.2 99.9 64.4 64.4 99.9 150.1 99.9 241.2S763.2 639 698.8 703.4c-64.4 64.6-150 100-241.2 100zM133.4 405.9c-3.2 18.6-4.8 37.5-4.8 56.4 0 87.9 34.2 170.6 96.4 232.7 62.2 62.2 144.8 96.4 232.7 96.4 87.9 0 170.6-34.2 232.7-96.4 62.2-62.2 96.4-144.8 96.4-232.7s-34.2-170.6-96.4-232.7c-62.2-62.2-144.8-96.4-232.7-96.4-7.9 0-16 0.3-23.9 0.9 19.6 32.2 29.9 69 29.9 107 0 113.7-92.5 206.3-206.3 206.3-44.8 0-88.4-14.7-124-41.5z" fill="#232323" p-id="8265"></path><path d="M567.7 901.6h-116V797.4c0-3.3 2.7-6 6-6s6 2.7 6 6v92.2h104c3.3 0 6 2.7 6 6s-2.7 6-6 6z" fill="#232323" p-id="8266"></path><path d="M792.8 462.3c0-59.1-15.3-114.7-42.2-162.9-87.7 6.9-156.7 80.2-156.7 169.7 0 86.9 65.1 158.6 149.2 168.9 31.5-51.1 49.7-111.3 49.7-175.7z" fill="#F9F7F7" p-id="8267"></path><path d="M746.2 644.4l-3.8-0.5c-88.1-10.8-154.5-86-154.5-174.9 0-44.6 16.7-87.2 47.1-119.9 30.2-32.5 71.1-52.3 115.1-55.8l3.8-0.3 1.9 3.4c28.1 50.5 43 107.8 43 165.9 0 63.3-17.5 125.1-50.6 178.8l-2 3.3z m0.9-338.7c-39.6 4.1-76.2 22.3-103.4 51.6-28.3 30.5-43.8 70.1-43.8 111.7 0 81.5 60 150.7 140.1 162.4 30.6-51 46.8-109.4 46.8-169.2 0-54.6-13.7-108.6-39.7-156.5z" fill="#232323" p-id="8268"></path><path d="M665.9 459.4c-1.3 0-2.5-0.4-3.6-1.2-2.7-2-3.2-5.7-1.2-8.4 9.3-12.3 20.1-18.8 32.2-19.3 21.5-0.8 38.3 18.1 39 18.9 2.2 2.5 1.9 6.3-0.6 8.5s-6.3 1.9-8.5-0.6c-0.1-0.2-13.9-15.5-29.6-14.9-8.3 0.3-16 5.2-23 14.5-1.1 1.7-2.9 2.5-4.7 2.5z" fill="#232323" p-id="8269"></path></svg>